<svg width="484" height="416" viewBox="0 0 484 416" fill="none" xmlns="http://www.w3.org/2000/svg">
<path d="M210.018 0C151.159 0 101.453 21.0928 60.8649 63.3133C20.2765 103.512 0 151.729 0 207.965C0 264.236 20.2765 313.499 60.8649 355.685C103.495 395.883 153.201 416 210.018 416C266.834 416 315.519 395.883 356.108 355.685C398.702 313.499 420 264.236 420 207.965C420 151.729 399.688 103.477 359.135 63.3133C318.582 21.1276 268.841 0 210.018 0Z" fill="#121212"/>
<path d="M420.005 58C402.068 58 386.919 64.3887 374.549 77.1766C362.18 89.3521 356 103.956 356 120.989C356 138.033 362.18 152.954 374.549 165.731C387.541 177.907 402.69 184 420.005 184C437.321 184 452.158 177.907 464.528 165.731C477.509 152.954 484 138.033 484 120.989C484 103.956 477.81 89.3416 465.451 77.1766C453.092 64.3992 437.932 58 420.005 58Z" fill="#A0F4A8"/>
</svg>
